<?xml version="1.0" encoding="UTF-8" standalone="no"?>
<svg
   width="1458"
   height="730"
   xml:space="preserve"
   overflow="hidden"
   version="1.1"
   id="svg54"
   xmlns="http://www.w3.org/2000/svg"
   xmlns:svg="http://www.w3.org/2000/svg"><defs
     id="defs58" /><g
     transform="translate(-1701,-1491)"
     id="g52"
     style="display:inline"><path
       d="M 0,0 235.025,292.879"
       stroke="#000000"
       stroke-width="6.875"
       stroke-miterlimit="8"
       stroke-dasharray="6.875, 6.875"
       fill="none"
       fill-rule="evenodd"
       transform="matrix(1,0,0,-1,2412.5,2056.38)"
       id="path2" /><path
       d="M 2757.35,1957.37 2293.5,1856.5"
       stroke="#000000"
       stroke-width="6.875"
       stroke-miterlimit="8"
       stroke-dasharray="6.875, 6.875"
       fill="none"
       fill-rule="evenodd"
       id="path4" /><path
       d="m 2336.69,1785.01 12.19,-7.21 10.57,-5.2 21.97,-9.26 23.18,-7.86 24.18,-6.41 24.97,-4.97 25.57,-3.48 12.98,-1.18 13.05,-0.81 13.11,-0.43 13.15,-0.05 13.15,0.33 13.15,0.72 13.11,1.11 13.06,1.5 12.97,1.89 12.86,2.29 12.74,2.69 12.59,3.09 12.41,3.5 12.21,3.9 11.99,4.32 11.74,4.72 11.33,5.09 10.79,5.37 10.24,5.65 9.68,5.9 9.12,6.15 8.56,6.38 7.98,6.6 7.42,6.81 6.83,6.99 6.25,7.18 5.65,7.34 5.07,7.48 4.46,7.63 3.85,7.74 3.24,7.85 2.62,7.94 1.99,8.02 1.37,8.07 0.72,8.12 0.09,8.14 -0.57,8.15 -1.21,8.13 -1.87,8.11 -2.52,8.07 -3.18,8 -3.85,7.93 -4.5,7.83 -5.17,7.73 -5.84,7.61 -6.5,7.47 -7.18,7.32 -7.86,7.17 -11.39,9.14 -12.28,8.58 -13.11,7.99 -13.89,7.38 -14.59,6.77 -15.26,6.14 -15.85,5.49 -16.4,4.83 -16.88,4.16 -17.32,3.47 -17.69,2.77 -18.01,2.06 -18.27,1.31 -18.48,0.57 -18.63,-0.19 -18.66,-0.97 0.3,-5.72 18.6,0.97 -0.12,-0.01 18.51,0.19 -0.12,0.01 18.36,-0.57 -0.12,0.01 18.16,-1.31 -0.12,0.01 17.89,-2.04 -0.12,0.01 17.57,-2.75 -0.12,0.03 17.2,-3.45 -0.12,0.02 16.76,-4.13 -0.12,0.04 16.27,-4.8 -0.13,0.04 15.72,-5.44 -0.13,0.04 15.12,-6.08 -0.14,0.06 14.46,-6.7 -0.14,0.07 13.74,-7.31 -0.14,0.08 12.96,-7.9 -0.15,0.1 12.13,-8.47 -0.15,0.12 11.24,-9.04 -0.14,0.12 7.74,-7.05 -0.12,0.11 7.07,-7.2 -0.12,0.12 6.39,-7.34 -0.11,0.14 5.73,-7.46 -0.11,0.15 5.06,-7.57 -0.1,0.16 4.41,-7.66 -0.1,0.18 3.76,-7.74 -0.09,0.19 3.1,-7.81 -0.07,0.2 2.46,-7.85 -0.06,0.21 1.82,-7.89 -0.04,0.22 1.18,-7.92 -0.03,0.23 0.55,-7.92 v 0.22 l -0.09,-7.91 0.02,0.23 -0.71,-7.9 0.03,0.23 -1.33,-7.86 0.05,0.22 -1.94,-7.81 0.06,0.21 -2.56,-7.74 0.07,0.19 -3.16,-7.66 0.09,0.18 -3.77,-7.56 0.09,0.17 -4.36,-7.46 0.1,0.16 -4.96,-7.34 0.1,0.14 -5.55,-7.2 0.11,0.14 -6.14,-7.05 0.11,0.12 -6.72,-6.88 0.11,0.11 -7.3,-6.71 0.12,0.1 -7.88,-6.51 0.12,0.09 -8.45,-6.3 0.11,0.08 -9.01,-6.07 0.11,0.07 -9.57,-5.84 0.11,0.06 -10.13,-5.58 0.1,0.05 -10.68,-5.32 0.11,0.05 -11.24,-5.04 0.1,0.05 -11.63,-4.69 0.1,0.04 -11.89,-4.28 0.09,0.03 -12.11,-3.87 0.1,0.03 -12.32,-3.47 0.09,0.02 -12.49,-3.06 0.09,0.02 -12.64,-2.67 0.09,0.01 -12.78,-2.27 0.09,0.01 -12.89,-1.88 0.09,0.02 -12.97,-1.49 h 0.09 l -13.03,-1.1 0.08,0.01 -13.06,-0.72 0.09,0.01 -13.08,-0.33 h 0.09 l -13.06,0.05 0.08,-0.01 -13.03,0.43 h 0.09 l -12.97,0.8 0.08,-0.01 -12.88,1.18 0.13,-0.01 -25.42,3.46 0.17,-0.03 -24.8,4.93 0.18,-0.04 -23.99,6.36 0.18,-0.05 -22.99,7.79 0.19,-0.07 -21.8,9.19 0.15,-0.07 -10.39,5.12 0.19,-0.11 -12.09,7.15 z m 18.3,18.67 -50.72,7.32 24.57,-44.96 z"
       fill="#a5a5a5"
       id="path6" /><path
       d="M 0,0 355.801,84.4315"
       stroke="#4472c4"
       stroke-width="13.75"
       stroke-miterlimit="8"
       fill="none"
       fill-rule="evenodd"
       transform="matrix(1,0,0,-1,2415,2050.43)"
       id="path8" /><path
       d="M 0,0 355.801,84.4315"
       stroke="#4472c4"
       stroke-width="13.75"
       stroke-miterlimit="8"
       fill="none"
       fill-rule="evenodd"
       transform="matrix(1,0,0,-1,2288,1847.43)"
       id="path10" /><path
       d="M 0,0 355.801,84.4315"
       stroke="#b4c7e7"
       stroke-width="13.75"
       stroke-miterlimit="8"
       fill="none"
       fill-rule="evenodd"
       transform="matrix(1,0,0,-1,2792,1957.43)"
       id="path12" /><path
       d="M 0,0 355.801,84.4315"
       stroke="#b4c7e7"
       stroke-width="13.75"
       stroke-miterlimit="8"
       fill="none"
       fill-rule="evenodd"
       transform="matrix(1,0,0,-1,2672,1751.43)"
       id="path14" /><path
       d="M 0,0 355.801,84.4315"
       stroke="#b4c7e7"
       stroke-width="13.75"
       stroke-miterlimit="8"
       fill="none"
       fill-rule="evenodd"
       transform="matrix(1,0,0,-1,2024,2142.43)"
       id="path16" /><path
       d="M 0,0 355.801,84.4315"
       stroke="#b4c7e7"
       stroke-width="13.75"
       stroke-miterlimit="8"
       fill="none"
       fill-rule="evenodd"
       transform="matrix(1,0,0,-1,1899,1940.43)"
       id="path18" /><path
       d="m 2274,1850 131.24,203.45"
       stroke="#4472c4"
       stroke-width="13.75"
       stroke-miterlimit="8"
       fill="none"
       fill-rule="evenodd"
       id="path20" /><path
       d="m 2648,1753 128.54,213.22"
       stroke="#4472c4"
       stroke-width="13.75"
       stroke-miterlimit="8"
       fill="none"
       fill-rule="evenodd"
       id="path22" /><path
       d="m 1899,1940 131.24,203.45"
       stroke="#b4c7e7"
       stroke-width="13.75"
       stroke-miterlimit="8"
       fill="none"
       fill-rule="evenodd"
       id="path24" /><path
       d="m 2273,1843 128.54,213.22"
       stroke="#4472c4"
       stroke-width="13.75"
       stroke-miterlimit="8"
       fill="none"
       fill-rule="evenodd"
       id="path26" /><path
       d="m 2649,1758 131.24,203.45"
       stroke="#4472c4"
       stroke-width="13.75"
       stroke-miterlimit="8"
       fill="none"
       fill-rule="evenodd"
       id="path28" /><path
       d="m 3023,1663 128.54,213.22"
       stroke="#b4c7e7"
       stroke-width="13.75"
       stroke-miterlimit="8"
       fill="none"
       fill-rule="evenodd"
       id="path30" /><path
       d="m 2247.5,1843 c 0,-10.22 12.09,-18.5 27,-18.5 14.91,0 27,8.28 27,18.5 0,10.22 -12.09,18.5 -27,18.5 -14.91,0 -27,-8.28 -27,-18.5 z"
       stroke="#2f528f"
       stroke-width="4.58333"
       stroke-miterlimit="8"
       fill="#4472c4"
       fill-rule="evenodd"
       id="path32" /><path
       d="m 2621.5,1754.5 c 0,-10.49 12.09,-19 27,-19 14.91,0 27,8.51 27,19 0,10.49 -12.09,19 -27,19 -14.91,0 -27,-8.51 -27,-19 z"
       stroke="#2f528f"
       stroke-width="4.58333"
       stroke-miterlimit="8"
       fill="#4472c4"
       fill-rule="evenodd"
       id="path34" /><path
       d="m 2743.5,1961 c 0,-10.22 12.31,-18.5 27.5,-18.5 15.19,0 27.5,8.28 27.5,18.5 0,10.22 -12.31,18.5 -27.5,18.5 -15.19,0 -27.5,-8.28 -27.5,-18.5 z"
       stroke="#2f528f"
       stroke-width="4.58333"
       stroke-miterlimit="8"
       fill="#4472c4"
       fill-rule="evenodd"
       id="path36" /><path
       d="m 2374.5,2053 c 0,-10.22 12.31,-18.5 27.5,-18.5 15.19,0 27.5,8.28 27.5,18.5 0,10.22 -12.31,18.5 -27.5,18.5 -15.19,0 -27.5,-8.28 -27.5,-18.5 z"
       stroke="#2f528f"
       stroke-width="4.58333"
       stroke-miterlimit="8"
       fill="#4472c4"
       fill-rule="evenodd"
       id="path38" /><text
       fill="#3b3838"
       font-family="'Source Sans Pro Black', 'Source Sans Pro Black_MSFontService', sans-serif"
       font-weight="900"
       font-size="83px"
       transform="translate(2230.38,1819)"
       id="text40">4</text><text
       fill="#3b3838"
       font-family="'Source Sans Pro Black', 'Source Sans Pro Black_MSFontService', sans-serif"
       font-weight="900"
       font-size="83px"
       transform="translate(2608.74,1723)"
       id="text42">3</text><text
       fill="#3b3838"
       font-family="'Source Sans Pro Black', 'Source Sans Pro Black_MSFontService', sans-serif"
       font-weight="900"
       font-size="83px"
       transform="translate(2779.04,2050)"
       id="text44">2</text><text
       fill="#3b3838"
       font-family="'Source Sans Pro Black', 'Source Sans Pro Black_MSFontService', sans-serif"
       font-weight="900"
       font-size="83px"
       transform="translate(2380.59,2150)"
       id="text46">1</text><path
       d="M 7.44181,-0.301605 18.5304,273.298 3.6468,273.902 -7.44181,0.301605 Z M 47.996,264.65 13.8031,340.576 -26.422,267.666 Z"
       transform="matrix(1,0,0,-1,2535.5,1907.08)"
       id="path48"
       style="display:inline" /><text
       fill="#3b3838"
       font-family="'Source Sans Pro', 'Source Sans Pro_MSFontService', sans-serif"
       font-weight="700"
       font-size="73px"
       transform="rotate(-12.985182,9392.4369,-6783.6377)"
       id="text50"
       style="display:none">mesh panels</text></g></svg>
